<svg version="1.0" xmlns="http://www.w3.org/2000/svg" width="752" height="765.333" viewBox="0 0 564 574"><path d="M0 287v287h564V0H0zM513 23.8c12.5 4.5 23.1 13.2 28.7 23.8 6.8 12.9 6.3-6.8 6.3 240.9 0 247 .5 229.2-6.2 241.7-4.6 8.6-14.9 17.8-24.6 22l-7.7 3.3h-458l-7.7-3.3c-15-6.5-27-21-29.8-36.1-1.5-7.9-1.4-448.3.1-455.3C18.2 41.2 36.3 24.7 56.5 22c3.3-.4 105.9-.7 228-.6l222 .1z"/><path d="M55 39.6c-11.3 3.1-19.3 10.3-23 20.8-2 5.4-2 9.7-2 228.5v223l2.2 5.8c2.7 7.3 10.1 15.3 17.1 18.4l5.2 2.4H280c219.9 0 225.6 0 230.5-1.9 6.2-2.4 13.9-9.5 17.3-16.1l2.7-5 .3-224.5c.2-249.2.8-229.9-6.6-239.5-4.6-6.1-12.2-10.8-19.8-12.4-4.2-.8-63.9-1.1-224.8-1-189.6 0-219.8.2-224.6 1.5m30.3 17c6 2 13.1 8.4 16.5 14.8 2.2 4.3 2.7 6.4 2.7 13.1 0 7-.4 8.7-3 13.4-5.5 10-14.4 15.1-26.4 15.1-7.9 0-13.9-2.4-19.4-7.8-10.5-10.1-12.3-25.1-4.4-36.9 3.4-5.1 10.8-10.7 16.1-12.2 4.9-1.5 12.8-1.2 17.9.5m412.4 1.3c6.5 3.3 11 7.7 14 13.9 9.3 18.8-4.7 41.1-25.8 41.2-8.1 0-13.9-1.9-19.5-6.5-9.7-8-13-24-7.2-35.1 3.4-6.4 10.7-13 16.7-14.9 6.3-2 16.4-1.4 21.8 1.4M239 97v25h16V72h17v50h17V72h17v50h16V72h17v50h10c9.4 0 10.3.2 12.5 2.5 2.4 2.3 2.5 2.9 2.5 16.5v14h14.3c17.1 0 22.7 1.3 28.2 6.7 6.6 6.4 7.5 9.6 7.5 27.5V205h12.5c19.7 0 21.5 1.4 21.5 16.6v8.4h50v17h-50v17h50v17h-50v16h50v17h-50v16l24.8.2 24.7.3.3 8.2.3 8.3H448v9c0 15.5-1.9 17-21.6 17h-12.3l-.3 16.9-.3 16.9-3 4.3c-1.7 2.4-5 5.7-7.4 7.4-4.3 3-4.3 3-21.4 3.5l-17.2.5-.3 13.5c-.1 7.4-.7 14.5-1.3 15.6-1.7 3.4-5.3 4.4-14.9 4.4h-9v50h-17v-50h-16v50h-17v-50h-17v50h-17v-50h-16v50h-17v-50h-9c-10.1 0-14.6-1.5-15.5-5.3-.3-1.2-.6-8.1-.8-15.2l-.2-13-17-.5c-18.7-.6-21.2-1.3-27-8.2-4.8-5.7-5.5-8.9-5.5-25.4V373h-12.4c-19.7 0-21.6-1.5-21.6-17v-9H62.9l.3-8.3.3-8.2H113V314H63v-17h50v-16H63v-17h50v-17H63v-17h50v-8.4c0-15.2 1.8-16.6 21.5-16.6H147v-15.5c0-17.9.7-20.6 7.3-27.3 5.9-6 10.7-7.2 28.4-7.2H197v-14c0-13.6.1-14.2 2.5-16.5 2.2-2.3 3.1-2.5 12.5-2.5h10V72h17zM87.3 466.5c5.4 2.2 11.4 8.1 14.5 13.9 3.6 6.9 3.8 18.9.4 25.3-5.8 11-15 16.7-26.7 16.6-8.5-.1-14.3-2.4-20-8-10.6-10.3-12.1-26.2-3.6-38 7.8-10.8 23-15 35.4-9.8m411.2 1c17.9 8.7 21.6 32.4 7.2 46.8-5.4 5.4-11.7 7.9-20.2 8-25.3.3-38.7-29.5-21.9-48.2 9.1-10.1 22.6-12.7 34.9-6.6"/><path d="M69.2 74c-6.4 3.9-7.7 13-2.7 18.4 8.1 8.8 22.4 2.5 21.2-9.3-1-8.9-10.9-13.9-18.5-9.1m411.3-1c-6.5 2.7-9.3 11.7-5.5 17.8 7.8 12.5 27.3 2.5 21.6-11.1-2.5-6.1-10.1-9.2-16.1-6.7M214 147v8h133v-16H214zm-48 27c-2 2-2 3.3-2 114.8v112.9l2.1 1.9c2 1.8 5.4 1.9 114.5 1.9h112.3l2.3-2.3 2.3-2.3.3-109.2c.1-60 0-110.7-.3-112.5s-1.5-4.2-2.6-5.3c-1.9-1.9-4.3-1.9-114.4-1.9-111.2 0-112.5 0-114.5 2m53.5 42.5c6.5 6.4-1.1 16.3-10 12.9-1.7-.7-4.5-5.4-4.5-7.8 0-.8 1.2-2.8 2.6-4.5 3.3-4 8.3-4.3 11.9-.6m33.5 0c5 5.3 1.3 13.5-6.1 13.5-2.9 0-4.2-.6-5.8-2.6-4.4-5.6-1.1-13.4 5.8-13.4 2.7 0 4.4.7 6.1 2.5m33.5.1c3.2 3.5 3.2 7.8 0 10.9-4.3 4.4-11.2 3.1-13.5-2.5-1.4-3.4 0-8.3 2.9-10 3.2-1.9 8.1-1.1 10.6 1.6m33.2-.4c5.1 4.8 1.5 13.8-5.6 13.8-4.7 0-8.1-3.2-8.1-7.9 0-7.2 8.4-10.9 13.7-5.9m32.2-1.2c3.1 1.6 4.6 6.5 3.1 10-1.5 3.6-3.7 5-8 5-3.6 0-8-3.8-8-7 0-2.6 2.5-7.7 4.2-8.3 2.2-.9 6.8-.7 8.7.3m-115.7 35c2.5 2.6 2.9 3.6 2.4 6.3-.4 1.8-1.4 4-2.4 4.9-.9 1-3.1 2-4.9 2.4-2.7.5-3.7.1-6.3-2.4-3.8-3.9-4-7.9-.4-11.6 3.7-3.6 7.7-3.4 11.6.4m33.2-.4c6.7 6.7-.8 17.3-9.2 13-5.6-2.9-6.2-10.4-1-14 3.3-2.4 7.2-2 10.2 1m33.8.4c2.5 2.6 2.9 3.6 2.4 6.3-.8 4-3.2 6.5-7.2 7.3-2.4.4-3.7 0-6.2-2.1-4.2-3.5-4.4-8.1-.6-11.9 3.7-3.6 7.7-3.4 11.6.4m33.2-.4c3.8 3.8 3.6 8.4-.6 11.9-2.5 2.1-3.8 2.5-6.2 2.1-4-.8-6.4-3.3-7.2-7.3-.5-2.7-.1-3.7 2.4-6.3 3.9-3.8 7.9-4 11.6-.4M220 283.8c2.7 3.4 2.5 7.4-.5 10.6-6.1 6.6-16.9-.2-13.4-8.6 2.4-5.7 10.1-6.9 13.9-2m34.6 1.8c2.4 5.7-1.4 11.4-7.7 11.4-4.6 0-7.9-3.6-7.9-8.5 0-8.4 12.3-10.8 15.6-2.9m32.9-1.3c3.7 5.3-.4 12.7-7 12.7-8.8 0-11.4-12-3.3-15.4 3.8-1.6 8.1-.5 10.3 2.7m32.3-1c2.8 2.6 2.9 7.5.1 11.1-1.6 2-2.9 2.6-5.9 2.6-9.3 0-10.9-13.1-2-16.3 2.2-.8 5.2.2 7.8 2.6m35 2.1c2.7 5.4-1.2 11.6-7.3 11.6-9 0-11.5-12-3.3-15.5 4.2-1.7 8.7-.1 10.6 3.9m-119.7 29.9c6.6 5.1 3.5 15.1-4.8 15.1-4.4 0-8.3-4-8.3-8.5 0-5.9 8.5-10.2 13.1-6.6m34.4 1.2c6.3 6.2-.2 16.2-8.6 13.3-3.9-1.3-6.4-6.5-5-10.2 2.2-5.7 9.4-7.4 13.6-3.1m33.6.4c3.3 3.3 3.5 5 1.4 9-1.5 3.1-6.5 5.4-9.3 4.4-6.3-2.2-8.2-9.4-3.7-13.8 3.4-3.5 7.8-3.3 11.6.4m33.4-.4c6.2 6.1-.3 16.2-8.5 13.4-3-1.1-6-5.3-6-8.4 0-.9 1.3-3 2.9-4.6 3.8-3.7 8.2-3.9 11.6-.4m-117.4 33.4c3.7 3.8 3.8 7.9.3 11.5-3.7 3.6-7.7 3.4-11.6-.4-2.5-2.6-2.9-3.6-2.4-6.2.7-3.6 2.2-5.7 5.1-6.8 3.6-1.5 5.6-1.1 8.6 1.9m31.8-1.4c5.5 2.8 6 10.4.9 13.9-5.5 3.8-12.8 0-12.8-6.8 0-2.6.7-4 3.1-6 3.5-3 4.9-3.2 8.8-1.1m35.9 2.1c3 3.4 2.8 7.5-.4 10.8-3.8 3.8-8.4 3.6-11.9-.6-7.2-8.5 4.8-18.5 12.3-10.2m31.1-2.1c3.3 1.6 4.1 3.3 4.1 8 0 4-3.8 7.5-8 7.5-8.6 0-11.1-11.4-3.5-15.8 2.7-1.5 4.1-1.5 7.4.3m35.3 1.3c3.2 3.1 3.3 7.5.3 11-6.2 7.4-17.5.2-13.3-8.4 2.5-5.3 9-6.6 13-2.6m-223-61.1.3 66.8h16v-133l-8.3-.3-8.2-.3zm284.3-65.5c-.3.7-.4 30.8-.3 66.8l.3 65.5h16l.3-66.8.2-66.7h-8c-5.5 0-8.2.4-8.5 1.2M214 430.5v8.5h133v-17H214zM69.2 483c-6.8 4.2-7.8 13.7-2.1 19.1 8.5 8 21.7 1.5 20.6-10.1-.4-3.5-1.3-5.1-4.1-7.7-4.3-3.9-9.3-4.4-14.4-1.3m408.3 1.2c-3 2.7-3.8 4.3-4.2 7.8-1.5 14.7 19.6 19.2 23.8 5.1 2.4-7.9-2.5-15.1-11-15.9-4.5-.4-5.2-.1-8.6 3"/></svg>